<svg preserveAspectRatio="none" width="100%" height="100%" overflow="visible" style="display: block;" viewBox="0 0 60 60" fill="none" xmlns="http://www.w3.org/2000/svg">
<g id="Frame 1618872462">
<rect width="60" height="60" rx="8" fill="var(--fill-0, #57C4C9)"/>
<path id="Path 872" fill-rule="evenodd" clip-rule="evenodd" d="M28.479 23.1984C28.2144 22.9339 27.7856 22.9339 27.521 23.1984L21.1984 29.5209C21.0714 29.6479 21 29.8203 21 29.9999C21 30.1796 21.0714 30.3519 21.1984 30.479L27.521 36.8016C27.7856 37.0661 28.2144 37.0661 28.479 36.8016C28.7436 36.537 28.7436 36.1081 28.479 35.8435L23.3129 30.6773H37.9355C38.3096 30.6773 38.6129 30.374 38.6129 29.9999C38.6129 29.6258 38.3096 29.3225 37.9355 29.3225H23.3129L28.479 24.1564C28.7436 23.8919 28.7436 23.463 28.479 23.1984Z" fill="var(--fill-0, black)"/>
</g>
</svg>
