<svg preserveAspectRatio="none" width="100%" height="100%" overflow="visible" style="display: block;" viewBox="0 0 32 32" fill="none" xmlns="http://www.w3.org/2000/svg">
<g id="hammer-duotone 1" clip-path="url(#clip0_0_47)">
<path id="Vector" opacity="0.2" d="M30.7075 16.125L27.125 19.7075C26.9375 19.8945 26.6835 19.9995 26.4188 19.9995C26.154 19.9995 25.9 19.8945 25.7125 19.7075L21.0125 15L17.5125 18.5L13.5125 14.5L17.0125 11L10 3.9725C12.0341 3.05356 14.3001 2.77662 16.4957 3.17862C18.6913 3.58062 20.7122 4.64245 22.2887 6.2225L30.7075 14.7087C30.8007 14.8016 30.8746 14.912 30.925 15.0335C30.9755 15.155 31.0014 15.2853 31.0014 15.4169C31.0014 15.5484 30.9755 15.6787 30.925 15.8002C30.8746 15.9217 30.8007 16.0321 30.7075 16.125Z" fill="var(--fill-0, #57C4C9)"/>
<path id="Vector_2" d="M31.4173 14L22.9848 5.51003C20.7327 3.26244 17.681 2.00014 14.4992 2.00014C11.3175 2.00014 8.26567 3.26244 6.01358 5.51003L6.00233 5.52128L4.28108 7.30003C4.10278 7.49165 4.00671 7.74554 4.0135 8.00719C4.02029 8.26885 4.1294 8.51741 4.3174 8.69952C4.5054 8.88163 4.75731 8.98277 5.01905 8.98123C5.28078 8.97969 5.53149 8.87559 5.71733 8.69128L7.43358 6.91878C8.12407 6.22844 8.91203 5.64305 9.77233 5.18128L15.5848 11L3.58483 23C3.39907 23.1858 3.25171 23.4063 3.15117 23.6489C3.05063 23.8916 2.99888 24.1517 2.99888 24.4144C2.99888 24.6771 3.05063 24.9372 3.15117 25.1799C3.25171 25.4226 3.39907 25.6431 3.58483 25.8288L6.17108 28.415C6.35681 28.6008 6.5773 28.7482 6.81999 28.8487C7.06267 28.9492 7.32278 29.001 7.58546 29.001C7.84814 29.001 8.10825 28.9492 8.35093 28.8487C8.59361 28.7482 8.81411 28.6008 8.99983 28.415L20.9998 16.415L22.7923 18.2075L24.9998 20.4125C25.1856 20.5983 25.4061 20.7457 25.6487 20.8462C25.8914 20.9467 26.1515 20.9985 26.4142 20.9985C26.6769 20.9985 26.937 20.9467 27.1797 20.8462C27.4224 20.7457 27.6429 20.5983 27.8286 20.4125L31.4148 16.8263C31.7896 16.4516 32.0003 15.9436 32.0008 15.4137C32.0013 14.8838 31.7914 14.3753 31.4173 14ZM7.58483 27L4.99983 24.4138L13.4998 15.9138L16.0848 18.5L7.58483 27ZM20.2923 14.29L17.4998 17.0838L14.9136 14.5L17.7073 11.7063C17.8003 11.6134 17.8741 11.5031 17.9244 11.3817C17.9747 11.2603 18.0006 11.1302 18.0006 10.9988C18.0006 10.8674 17.9747 10.7372 17.9244 10.6158C17.8741 10.4944 17.8003 10.3842 17.7073 10.2913L11.7898 4.37503C13.4995 3.89353 15.3066 3.87607 17.0252 4.32446C18.7439 4.77286 20.3121 5.67091 21.5686 6.92628L27.0961 12.49L23.4998 16.0825L21.7073 14.29C21.6145 14.1971 21.5042 14.1233 21.3828 14.073C21.2614 14.0226 21.1312 13.9967 20.9998 13.9967C20.8684 13.9967 20.7383 14.0226 20.6169 14.073C20.4955 14.1233 20.3852 14.1971 20.2923 14.29ZM26.4173 18.9975L24.9173 17.4975L28.4998 13.9063L29.9998 15.4063L26.4173 18.9975Z" fill="var(--fill-0, #57C4C9)"/>
</g>
<defs>
<clipPath id="clip0_0_47">
<rect width="32" height="32" fill="white"/>
</clipPath>
</defs>
</svg>
