<svg preserveAspectRatio="xMidYMid meet" width="100%" height="100%" overflow="visible" style="display: block;" viewBox="0 0 89.5962 40" fill="none" xmlns="http://www.w3.org/2000/svg">
<g id="Layer 2">
<path id="Vector" d="M72.6476 40H78.5752L80.1486 34.2857L81.7219 28.5714H75.7981L74.2209 34.2857L72.6476 40Z" fill="var(--fill-0, white)"/>
<path id="Vector_2" d="M7.87047 11.4286L6.29714 17.1429L4.72381 22.8571H22.5029L24.0762 17.1429H12.2248L13.7981 11.4286L15.3714 5.71429H27.2267L28.8 0H11.021L9.44762 5.71429L7.87047 11.4286Z" fill="var(--fill-0, white)"/>
<path id="Vector_3" d="M32.339 11.4286L30.7657 17.1429L29.1924 22.8571L27.619 28.5714H33.5467L35.12 22.8571L36.6933 17.1429L38.2667 11.4286L39.84 5.71429H51.6952L50.1219 11.4286L48.5486 17.1429H54.4762L56.0495 11.4286L57.6228 5.71429L59.2 0H35.4895L33.9124 5.71429L32.339 11.4286Z" fill="var(--fill-0, white)"/>
<path id="Vector_4" d="M62.739 11.4286L61.1657 17.1429L59.5924 22.8571L58.0152 28.5714L56.4419 34.2857L54.8686 40H60.7962L62.3695 34.2857L63.9429 28.5714L65.5162 22.8571H83.299L84.8724 17.1429L86.4457 11.4286L88.019 5.71429L89.5962 0H83.6686L82.0952 5.71429L80.5181 11.4286L78.9448 17.1429H67.0933L68.6667 11.4286L70.24 5.71429L71.8133 0H65.8857L64.3124 5.71429L62.739 11.4286Z" fill="var(--fill-0, white)"/>
<path id="Vector_5" d="M31.9695 34.2857L30.3962 40H7.24455e-07L1.57714 34.2857L3.15048 28.5714H9.07429L7.50095 34.2857H31.9695Z" fill="var(--fill-0, white)"/>
<path id="Vector_6" d="M51.3257 28.5714L52.8991 22.8571H41.0476L39.4743 28.5714H45.3981L43.8248 34.2857L42.2514 40H48.1791L49.7524 34.2857L51.3257 28.5714Z" fill="var(--fill-0, white)"/>
</g>
</svg>
